# xmcd
#
# Track frame offsets:
#	150
#	13854
#	43093
#	58843
#	73297
#	93192
#	113841
#
# Disc length: 1812 seconds
#
# Revision: 1
# Processed by: cddbd v1.5.2PL0 Copyright (c) Steve Scherf et al.
# Submitted via: audiograbber 1.83.01
#
DISCID=60071207
DTITLE=The Sure-Can Playboys - Kayajingo
DYEAR=2017
DGENRE=Country: Americana
TTITLE0=A Little Rock and Roll Never Hurt Anyone
TTITLE1=I Wanna Get Busy
TTITLE2=I Love Crazy
TTITLE3=Magic Money
TTITLE4=She's Got a Talent for It
TTITLE5=Steady
TTITLE6=Committing to Love
EXTD=
EXTT0=
EXTT1=
EXTT2=
EXTT3=
EXTT4=
EXTT5=
EXTT6=
PLAYORDER=
